<svg xmlns="http://www.w3.org/2000/svg" viewBox="0 0 15 13.2">
  <path d="M2.9 10.9l-.6 1.3c-.1.2-.1.5.1.8.1.1.3.2.5.2h.2l3-1.1c.4.1.9.1 1.4.1 4.1 0 7.5-2.7 7.5-6.1C15 2.7 11.6 0 7.5 0S0 2.7 0 6.1c0 1.8 1.1 3.6 2.9 4.8zm4.6-9.8c3.5 0 6.4 2.3 6.4 5 0 2.8-2.9 5-6.4 5-.4 0-.9 0-1.3-.1h-.3l-2.3.8.4-.8c.2-.3 0-.7-.3-.9-1.7-1-2.6-2.5-2.6-4 0-2.8 2.8-5 6.4-5z"/>
  <path d="M10.2 5.8h-6c-.3 0-.5-.2-.5-.5s.2-.5.5-.5h6c.3 0 .5.2.5.5s-.2.5-.5.5zM8.2 7.8h-4c-.3 0-.5-.2-.5-.5s.2-.5.5-.5h4c.3 0 .5.2.5.5s-.2.5-.5.5z"/>
</svg>